<svg xmlns="http://www.w3.org/2000/svg" xmlns:xlink="http://www.w3.org/1999/xlink" viewBox="0 0 48 48"><defs><linearGradient id="R3AiZAOIgOerUaZ5oGwxnb" x1="17.5" x2="17.5" y1="7" y2="41" gradientTransform="matrix(1.03 0 0 1 5.97 0)" gradientUnits="userSpaceOnUse"><stop offset="0" stop-color="#7694fd"/><stop offset="1" stop-color="#2d56d4"/></linearGradient><linearGradient id="R3AiZAOIgOerUaZ5oGwxna" x1="1" x2="34" y1="24" y2="24" gradientTransform="matrix(1.03 0 0 1 5.97 0)" gradientUnits="userSpaceOnUse"><stop offset="0" stop-color="#90a5eb" stop-opacity="0"/><stop offset=".417" stop-color="#8ea4ea" stop-opacity=".013"/><stop offset=".567" stop-color="#899ee6" stop-opacity=".059"/><stop offset=".674" stop-color="#8095df" stop-opacity=".14"/><stop offset=".761" stop-color="#7289d4" stop-opacity=".256"/><stop offset=".835" stop-color="#6078c7" stop-opacity=".407"/><stop offset=".9" stop-color="#4b63b6" stop-opacity=".593"/><stop offset=".958" stop-color="#314ba3" stop-opacity=".809"/><stop offset="1" stop-color="#1b3692"/></linearGradient><linearGradient id="R3AiZAOIgOerUaZ5oGwxnc" x1="-461" x2="-428" y1="92" y2="92" gradientTransform="matrix(1.03 0 0 1 481.97 -68)" xlink:href="#R3AiZAOIgOerUaZ5oGwxna"/><linearGradient id="R3AiZAOIgOerUaZ5oGwxnd" x1="-527" x2="-494" y1="-384" y2="-384" gradientTransform="matrix(1.03 0 0 1 549.97 408)" xlink:href="#R3AiZAOIgOerUaZ5oGwxna"/><linearGradient id="R3AiZAOIgOerUaZ5oGwxne" x1="-65" x2="-32" y1="-452" y2="-452" gradientTransform="matrix(1.03 0 0 1 73.97 476)" xlink:href="#R3AiZAOIgOerUaZ5oGwxna"/><linearGradient id="R3AiZAOIgOerUaZ5oGwxnf" x1="24.958" x2="24.958" y1="10" y2="38" gradientUnits="userSpaceOnUse"><stop offset="0" stop-color="#fff"/><stop offset=".325" stop-color="#fbfbfc"/><stop offset=".662" stop-color="#eeeef4"/><stop offset="1" stop-color="#dadae6"/></linearGradient></defs><rect width="34" height="34" x="7" y="7" fill="url(#R3AiZAOIgOerUaZ5oGwxnb)" rx="3"/><g opacity=".5"><rect width="34" height="34" x="7" y="7" fill="url(#R3AiZAOIgOerUaZ5oGwxna)" rx="3"/><rect width="34" height="34" x="7" y="7" fill="url(#R3AiZAOIgOerUaZ5oGwxnc)" rx="3" transform="rotate(-90 24 24)"/><rect width="34" height="34" x="7" y="7" fill="url(#R3AiZAOIgOerUaZ5oGwxnd)" rx="3" transform="rotate(180 24 24)"/><rect width="34" height="34" x="7" y="7" fill="url(#R3AiZAOIgOerUaZ5oGwxne)" rx="3" transform="rotate(90 24 24)"/></g><path fill="url(#R3AiZAOIgOerUaZ5oGwxnf)" d="M28,13a3,3,0,1,1,3,3A3,3,0,0,1,28,13Zm8.89,16.524-2.353-10.2A3,3,0,0,0,31.613,17H30.387a3,3,0,0,0-2.924,2.325l-2.353,10.2a.974.974,0,0,0,.263.929,5.931,5.931,0,0,0,3.008,1.315l.539,5.322a.991.991,0,0,0,.99.91h2.18a.991.991,0,0,0,.99-.91l.539-5.322a5.931,5.931,0,0,0,3.008-1.315A.974.974,0,0,0,36.89,29.524ZM14,13a3,3,0,1,1,3,3A3,3,0,0,1,14,13Zm7,7.5V27a1,1,0,0,1-1,1l-.92,9.09a.991.991,0,0,1-.99.91H15.91a.991.991,0,0,1-.99-.91L14,28a1,1,0,0,1-1-1V20.5A3.5,3.5,0,0,1,16.5,17h1A3.5,3.5,0,0,1,21,20.5Z"/></svg>